<svg clip-rule="evenodd" fill-rule="evenodd" stroke-linejoin="round" stroke-miterlimit="2" viewBox="0 0 1024 1024" xmlns="http://www.w3.org/2000/svg"><g fill-rule="nonzero" transform="translate(23.052734 -415.009766)"><path d="m201.66 867h214.512v-60.498h-123.252v-3.897l118.945-183.75v-47.783h-207.949v60.498h116.689v3.897l-118.945 183.75z"/><path d="m555.42 763.436 49.834 103.564h84.492l-58.242-114.639c30.967-13.535 50.449-45.732 50.449-83.672 0-61.113-41.426-97.617-110.537-97.617h-113.613v295.928h75.263v-103.564zm-22.354-135.557h27.686c27.48 0 44.297 15.586 44.297 40.605 0 25.635-17.022 41.836-44.092 41.836h-27.891z" transform="translate(88)"/><path d="m260.928 1287v-178.418h3.896l82.852 178.418h64.804v-295.928h-63.779v176.778h-3.896l-82.852-176.778h-64.805v295.928z" transform="translate(3 -10)"/><path d="m682.363 1160.877v-43.682c0-82.646-44.092-132.07-117.92-132.07s-117.92 49.424-117.92 132.07v43.682c0 82.646 44.092 132.07 117.92 132.07s117.92-49.424 117.92-132.07zm-117.92 69.727c-28.505 0-41.425-22.149-41.425-70.547v-42.041c0-48.399 12.92-70.547 41.425-70.547 28.506 0 41.426 22.148 41.426 70.547v42.041c0 48.398-12.92 70.547-41.426 70.547z" transform="translate(91 -10)"/></g></svg>